<svg width="344" height="334" viewBox="0 0 344 334" fill="none" xmlns="http://www.w3.org/2000/svg">
<rect x="172" y="246.096" width="79.0965" height="79.0965" stroke="#4D4F4F" stroke-width="1.61421"/>
<path d="M209.85 293.078H199.71L204.126 289.504C207.061 287.151 209.298 284.971 209.298 281.659C209.298 278.172 206.829 275.644 202.499 275.644C198.286 275.644 196.078 278.027 195.206 280.7L198.519 281.95C199.013 280.264 200.059 278.928 202.18 278.928C204.097 278.928 205.26 279.974 205.26 281.891V282.182C205.26 283.896 204.214 285.32 202.063 287.18L195.555 292.729V296.274H209.85V293.078ZM220.009 296.623C225.297 296.623 227.679 292.758 227.679 286.134C227.679 279.509 225.297 275.644 220.009 275.644C214.72 275.644 212.338 279.509 212.338 286.134C212.338 292.758 214.72 296.623 220.009 296.623ZM220.009 293.572C217.219 293.572 216.202 291.422 216.202 287.935V284.332C216.202 280.845 217.219 278.695 220.009 278.695C222.798 278.695 223.815 280.845 223.815 284.332V287.935C223.815 291.422 222.798 293.572 220.009 293.572ZM220.009 287.848C221.345 287.848 221.81 287.238 221.81 286.453V285.814C221.81 285.029 221.345 284.419 220.009 284.419C218.672 284.419 218.207 285.029 218.207 285.814V286.453C218.207 287.238 218.672 287.848 220.009 287.848Z" fill="#FE6A6A"/>
<path d="M180.295 254.77V260.203H182.111C182.344 259.767 182.823 259.157 183.898 259.157C185.177 259.157 186.034 260.029 186.034 261.496C186.034 263.065 185.148 264.053 183.608 264.053C182.053 264.053 181.094 263.138 181.094 261.569V261.351H179.918V261.612C179.918 263.762 181.414 265.142 183.608 265.142C185.801 265.142 187.24 263.588 187.24 261.496C187.24 259.433 185.889 258.096 184.131 258.096C182.693 258.096 182.024 258.75 181.646 259.447H181.472V255.859H186.964V254.77H180.295Z" fill="#D0D0D0"/>
<rect x="251.096" y="167" width="79.0965" height="79.0965" stroke="#4D4F4F" stroke-width="1.61421"/>
<path d="M289.586 217.178V214.069H284.995V196.897H279.155L274.128 202.882L276.511 204.887L280.927 199.657H281.189V214.069H275.61V217.178H289.586ZM306.485 204.509C306.485 199.657 303.725 196.548 299.018 196.548C294.514 196.548 291.58 199.425 291.58 203.521C291.58 207.386 294.166 209.827 297.594 209.827C300.209 209.827 301.517 208.403 302.301 206.834L302.534 206.892C301.604 211.076 298.785 213.778 293.933 217.178H299.105C302.563 214.911 306.485 210.32 306.485 204.509ZM299.047 206.892C296.781 206.892 295.502 205.642 295.502 203.405V203.057C295.502 200.819 296.752 199.541 299.047 199.541C301.313 199.541 302.563 200.819 302.563 203.057V203.405C302.563 205.642 301.255 206.892 299.047 206.892Z" fill="#FE6A6A"/>
<path d="M266.322 182.53C266.322 180.438 264.825 179.058 263.067 179.058C261.586 179.058 260.874 179.784 260.51 180.395H260.336V178.942C260.336 177.504 261.251 176.559 262.791 176.559C264.302 176.559 265.014 177.373 265.014 178.608H266.205C266.205 176.777 264.927 175.47 262.791 175.47C260.612 175.47 259.145 176.908 259.145 179V182.545C259.145 184.651 260.699 186.046 262.719 186.046C264.767 186.046 266.322 184.622 266.322 182.53ZM262.719 180.09C264.157 180.09 265.13 181.077 265.13 182.53C265.13 183.983 264.157 184.956 262.719 184.956C261.31 184.956 260.336 183.983 260.336 182.53C260.336 181.077 261.31 180.09 262.719 180.09Z" fill="#D0D0D0"/>
<rect x="172" y="8.80711" width="79.0965" height="79.0965" stroke="#4D4F4F" stroke-width="1.61421"/>
<path d="M210.955 58.9848L205.231 38.7038H199.942L194.247 58.9848H198.083L199.477 53.8419H205.492L206.916 58.9848H210.955ZM204.853 50.7329H200.146L202.383 42.452H202.616L204.853 50.7329ZM226.662 58.9848V56.0501H220.561V46.9266H226.662V43.992H220.561V38.7038H217.103V42.3358C217.103 43.5852 216.638 43.992 215.447 43.992H212.483V46.9266H216.842V54.917C216.842 57.2995 218.178 58.9848 221.026 58.9848H226.662Z" fill="#D0D0D0"/>
<path d="M179.976 20.7345V21.1122H181.167V20.8071C181.167 19.2381 182.111 18.3664 183.651 18.3664C184.959 18.3664 185.918 19.1509 185.918 20.502C185.918 21.9693 184.872 22.6086 183.143 23.117C181.211 23.6836 179.961 24.4536 179.961 26.473V27.6497H187.051V26.5602H181.167V26.3277C181.167 24.933 182.039 24.5698 183.666 24.0759C185.656 23.4657 187.109 22.594 187.109 20.5456C187.109 18.5843 185.671 17.2768 183.651 17.2768C181.501 17.2768 179.976 18.5989 179.976 20.7345Z" fill="#D0D0D0"/>
<rect x="251.096" y="87.9035" width="79.0965" height="79.0965" stroke="#4D4F4F" stroke-width="1.61421"/>
<path d="M296.402 138.081V134.943H287.395V129.364H296.083V126.226H287.395V120.938H296.402V117.8H283.589V138.081H296.402Z" fill="#D0D0D0"/>
<path d="M259.188 96.5766V97.6808H264.462L261.295 100.47V101.589H262.748C263.983 101.589 265 102.315 265 103.652C265 104.916 264.07 105.86 262.632 105.86C261.077 105.86 260.089 105.003 260.089 103.477V102.896H258.898V103.521C258.898 105.628 260.438 106.95 262.646 106.95C264.622 106.95 266.191 105.613 266.191 103.681C266.191 101.807 264.869 100.644 263.184 100.644H262.82V100.485L266.089 97.6372V96.5766H259.188Z" fill="#D0D0D0"/>
<rect x="92.9035" y="8.80711" width="79.0965" height="79.0965" stroke="#4D4F4F" stroke-width="1.61421"/>
<path d="M123.258 59.3334C128.168 59.3334 130.812 56.6894 130.812 52.9121C130.812 49.8903 129.098 47.8854 125.611 47.2462L123.49 46.8685C121.253 46.4908 120.41 45.7353 120.41 44.1954C120.41 42.3939 121.543 41.4641 123.722 41.4641C125.756 41.4641 127.267 42.2777 128.342 43.5561L130.58 41.1735C129.185 39.4302 126.861 38.3551 123.693 38.3551C119.277 38.3551 116.575 40.5053 116.575 44.3697C116.575 47.1881 118.028 49.4545 121.776 50.0937L123.926 50.4424C126.134 50.791 126.977 51.5755 126.977 53.1736C126.977 55.1203 125.698 56.2245 123.374 56.2245C121.369 56.2245 119.597 55.4109 118.086 53.6676L115.79 56.0501C117.33 58.0259 119.8 59.3334 123.258 59.3334ZM147.566 58.9848V56.0501H141.464V46.9266H147.566V43.992H141.464V38.7038H138.007V42.3358C138.007 43.5852 137.542 43.992 136.35 43.992H133.387V46.9266H137.745V54.917C137.745 57.2995 139.082 58.9848 141.929 58.9848H147.566Z" fill="#D0D0D0"/>
<path d="M103.16 17.4802L100.255 21.8676H101.606L103.669 18.6424H103.843V27.6497H105.034L105.049 17.4802H103.16Z" fill="#D0D0D0"/>
<path d="M92.8071 246V87.8071H251V246H92.8071Z" stroke="#4D4F4F" stroke-width="1.61421"/>
<path d="M132.501 216.607L144.731 209.206C147.09 213.389 149.237 216.929 154.385 216.929C159.319 216.929 162.431 214.998 162.431 207.49V156.428H177.448V207.702C177.448 223.257 168.331 230.337 155.028 230.337C143.015 230.337 136.041 224.115 132.501 216.606" fill="white"/>
<path d="M185.606 214.998L197.834 207.918C201.053 213.175 205.236 217.037 212.638 217.037C218.86 217.037 222.828 213.926 222.828 209.634C222.828 204.485 218.752 202.662 211.887 199.659L208.133 198.049C197.298 193.437 190.11 187.644 190.11 175.415C190.11 164.152 198.692 155.569 212.102 155.569C221.649 155.569 228.514 158.895 233.448 167.584L221.755 175.093C219.181 170.481 216.392 168.657 212.102 168.657C207.703 168.657 204.914 171.446 204.914 175.093C204.914 179.599 207.703 181.423 214.139 184.212L217.893 185.821C230.659 191.292 237.846 196.87 237.846 209.42C237.846 222.937 227.226 230.338 212.96 230.338C199.014 230.338 190.003 223.688 185.606 214.998Z" fill="white"/>
<rect x="13.8071" y="87.9035" width="79.0965" height="79.0965" stroke="#4D4F4F" stroke-width="1.61421"/>
<path d="M44.3936 138.43C49.6818 138.43 52.0643 134.565 52.0643 127.941C52.0643 121.316 49.6818 117.452 44.3936 117.452C39.1054 117.452 36.7229 121.316 36.7229 127.941C36.7229 134.565 39.1054 138.43 44.3936 138.43ZM44.3936 135.321C41.6914 135.321 40.7616 133.171 40.7616 129.684V126.197C40.7616 122.711 41.6914 120.561 44.3936 120.561C47.0958 120.561 48.0256 122.711 48.0256 126.197V129.655C48.0256 133.171 47.0958 135.321 44.3936 135.321ZM55.2782 138.081H68.4695V135.147H63.5882V126.023H69.1378V123.088H63.5882V119.515H69.1378V116.58H64.0821C61.2056 116.58 59.869 118.265 59.869 120.648V123.088H54.9876V126.023H59.869V135.147H55.2782V138.081Z" fill="#72D7D1"/>
<path d="M25.8071 96.5766L21.3907 103.681V104.727H26.6498V106.746H27.8411V104.727H29.5844V103.637H27.8411V96.5766H25.8071ZM26.4754 97.5645H26.6498V103.637H22.7127L26.4754 97.5645Z" fill="#D0D0D0"/>
</svg>
