<svg width="344" height="334" viewBox="0 0 344 334" fill="none" xmlns="http://www.w3.org/2000/svg">
<rect x="172" y="246.096" width="79.0965" height="79.0965" stroke="#4D4F4F" stroke-width="1.61421"/>
<path d="M195.538 281.589V282.344H198.909V281.705C198.909 278.974 200.623 277.637 203.122 277.637C205.301 277.637 206.87 278.887 206.87 281.066C206.87 283.681 204.952 284.698 201.814 285.657C198.095 286.761 195.597 288.475 195.597 292.223V295.274H210.037V292.194H198.996V291.875C198.996 289.753 200.478 289.114 203.325 288.272C207.422 287.08 210.241 285.366 210.241 281.182C210.241 277.114 207.074 274.528 203.093 274.528C198.822 274.528 195.538 277.085 195.538 281.589ZM212.45 282.78V287.429C212.45 292.717 215.472 295.681 220.15 295.681C224.828 295.681 227.85 292.717 227.85 287.429V282.78C227.85 277.579 224.77 274.528 220.15 274.528C215.472 274.528 212.45 277.579 212.45 282.78ZM215.821 282.693C215.821 279.526 217.332 277.608 220.15 277.608C222.94 277.608 224.48 279.468 224.48 282.693V287.516C224.48 290.683 223.085 292.601 220.15 292.601C217.274 292.601 215.821 290.741 215.821 287.516V282.693Z" fill="#FE6A6A"/>
<path d="M180.295 254.77V260.203H182.111C182.344 259.767 182.823 259.157 183.898 259.157C185.177 259.157 186.034 260.029 186.034 261.496C186.034 263.065 185.148 264.053 183.608 264.053C182.053 264.053 181.094 263.138 181.094 261.569V261.351H179.918V261.612C179.918 263.762 181.414 265.142 183.608 265.142C185.801 265.142 187.24 263.588 187.24 261.496C187.24 259.433 185.889 258.096 184.131 258.096C182.693 258.096 182.024 258.75 181.646 259.447H181.472V255.859H186.964V254.77H180.295Z" fill="#D0D0D0"/>
<rect x="251.096" y="167" width="79.0965" height="79.0965" stroke="#4D4F4F" stroke-width="1.61421"/>
<path d="M281.104 195.839L275.642 204.875H279.245L282.557 199.209H282.906V216.178H286.276V195.839H281.104ZM289.111 202.463C289.111 206.502 291.987 209.233 295.532 209.233C298.35 209.233 299.571 207.926 300.152 207.025H300.5V209.553C300.5 211.965 298.99 213.475 296.404 213.475C293.934 213.475 292.743 212.11 292.743 210.163H289.343C289.343 214.173 292.22 216.584 296.404 216.584C300.704 216.584 303.871 213.882 303.871 209.408V202.289C303.871 198.221 300.733 195.403 296.549 195.432C292.249 195.461 289.111 198.279 289.111 202.463ZM296.52 206.386C294.108 206.386 292.481 204.846 292.481 202.463C292.481 200.11 294.137 198.541 296.52 198.541C298.844 198.541 300.5 200.081 300.5 202.463C300.5 204.846 298.873 206.386 296.52 206.386Z" fill="#FE6A6A"/>
<path d="M266.322 182.53C266.322 180.438 264.825 179.058 263.067 179.058C261.586 179.058 260.874 179.784 260.51 180.395H260.336V178.942C260.336 177.504 261.251 176.559 262.791 176.559C264.302 176.559 265.014 177.373 265.014 178.608H266.205C266.205 176.777 264.927 175.47 262.791 175.47C260.612 175.47 259.145 176.908 259.145 179V182.545C259.145 184.651 260.699 186.046 262.719 186.046C264.767 186.046 266.322 184.622 266.322 182.53ZM262.719 180.09C264.157 180.09 265.13 181.077 265.13 182.53C265.13 183.983 264.157 184.956 262.719 184.956C261.31 184.956 260.336 183.983 260.336 182.53C260.336 181.077 261.31 180.09 262.719 180.09Z" fill="#D0D0D0"/>
<rect x="172" y="8.80711" width="79.0965" height="79.0965" stroke="#4D4F4F" stroke-width="1.61421"/>
<path d="M202.881 37.6457L196.866 57.9848H200.382L201.719 53.3068H209.39L210.726 57.9848H214.242L208.256 37.6457H202.881ZM202.59 50.1978L205.38 40.5222H205.728L208.547 50.1978H202.59ZM214.914 43.5731V46.3624H218.72V55.3697C218.72 56.9097 219.824 57.9848 221.335 57.9848H225.17V55.1954H222.701C222.177 55.1954 221.916 54.9339 221.916 54.3528V46.3624H225.984V43.5731H221.916V38.9532H218.72V43.5731H214.914Z" fill="#D0D0D0"/>
<path d="M179.976 20.7345V21.1122H181.167V20.8071C181.167 19.2381 182.111 18.3664 183.651 18.3664C184.959 18.3664 185.918 19.1509 185.918 20.502C185.918 21.9693 184.872 22.6086 183.143 23.117C181.211 23.6836 179.961 24.4536 179.961 26.473V27.6497H187.051V26.5602H181.167V26.3277C181.167 24.933 182.039 24.5698 183.666 24.0759C185.656 23.4657 187.109 22.594 187.109 20.5456C187.109 18.5843 185.671 17.2768 183.651 17.2768C181.501 17.2768 179.976 18.5989 179.976 20.7345Z" fill="#D0D0D0"/>
<rect x="251.096" y="87.9035" width="79.0965" height="79.0965" stroke="#4D4F4F" stroke-width="1.61421"/>
<path d="M284.599 116.742V137.081H297.935V133.972H287.969V128.394H296.976V125.314H287.969V119.851H297.79V116.742H284.599Z" fill="#D0D0D0"/>
<path d="M259.188 96.5766V97.6808H264.462L261.295 100.47V101.589H262.748C263.983 101.589 265 102.315 265 103.652C265 104.916 264.07 105.86 262.632 105.86C261.077 105.86 260.089 105.003 260.089 103.477V102.896H258.898V103.521C258.898 105.628 260.438 106.95 262.646 106.95C264.622 106.95 266.191 105.613 266.191 103.681C266.191 101.807 264.869 100.644 263.184 100.644H262.82V100.485L266.089 97.6372V96.5766H259.188Z" fill="#D0D0D0"/>
<rect x="92.9035" y="8.80711" width="79.0965" height="79.0965" stroke="#4D4F4F" stroke-width="1.61421"/>
<path d="M126.338 37.2389C122.474 37.2389 119.394 39.4471 119.394 42.992C119.394 46.7402 121.893 48.1348 125.902 49.0065L126.687 49.1809C129.331 49.7329 130.726 50.4012 130.726 52.2608C130.726 53.9751 129.331 55.3697 126.745 55.3697C123.549 55.3697 121.893 53.6264 121.893 50.7789V50.1978H118.551V50.9823C118.551 55.6022 121.718 58.3916 126.687 58.3916C130.929 58.3916 134.067 56.0671 134.067 52.1445C134.067 48.5416 131.684 47.0017 127.704 46.13L126.919 45.9557C124.246 45.3455 122.735 44.8225 122.735 42.9338C122.735 41.3648 124.188 40.2607 126.338 40.2607C128.837 40.2607 130.493 41.452 130.493 43.9217V44.561H133.805V43.6602C133.805 39.5343 130.609 37.2389 126.338 37.2389ZM135.675 43.5731V46.3624H139.482V55.3697C139.482 56.9097 140.586 57.9848 142.097 57.9848H145.932V55.1954H143.462C142.939 55.1954 142.678 54.9339 142.678 54.3528V46.3624H146.746V43.5731H142.678V38.9532H139.482V43.5731H135.675Z" fill="#D0D0D0"/>
<path d="M103.16 17.4802L100.255 21.8676H101.606L103.669 18.6424H103.843V27.6497H105.034L105.049 17.4802H103.16Z" fill="#D0D0D0"/>
<path d="M92.9035 87.9035H251.096V246.096H92.9035V87.9035Z" fill="#212424" fill-opacity="0.5" stroke="#4D4F4F" stroke-width="1.61421"/>
<path d="M132.501 216.607L144.731 209.206C147.09 213.389 149.237 216.929 154.385 216.929C159.319 216.929 162.431 214.998 162.431 207.49V156.428H177.448V207.702C177.448 223.257 168.331 230.337 155.028 230.337C143.015 230.337 136.041 224.115 132.501 216.606" fill="white"/>
<path d="M185.606 214.998L197.834 207.918C201.053 213.175 205.236 217.037 212.638 217.037C218.86 217.037 222.828 213.926 222.828 209.634C222.828 204.485 218.752 202.662 211.887 199.659L208.133 198.049C197.298 193.437 190.11 187.644 190.11 175.415C190.11 164.152 198.692 155.569 212.102 155.569C221.649 155.569 228.514 158.895 233.448 167.584L221.755 175.093C219.181 170.481 216.392 168.657 212.102 168.657C207.703 168.657 204.914 171.446 204.914 175.093C204.914 179.599 207.703 181.423 214.139 184.212L217.893 185.821C230.659 191.292 237.846 196.87 237.846 209.42C237.846 222.937 227.226 230.338 212.96 230.338C199.014 230.338 190.003 223.688 185.606 214.998" fill="white"/>
<rect x="13.8071" y="87.9035" width="79.0965" height="79.0965" stroke="#4D4F4F" stroke-width="1.61421"/>
<path d="M39.3892 124.703V129.12C39.3892 134.408 42.4691 137.488 47.5248 137.488C52.6096 137.488 55.6605 134.408 55.6605 129.12V124.703C55.6605 119.473 52.5515 116.335 47.5248 116.335C42.4691 116.335 39.3892 119.473 39.3892 124.703ZM42.7597 124.616C42.7597 121.42 44.3868 119.415 47.5248 119.415C50.6338 119.415 52.29 121.362 52.29 124.616V129.207C52.29 132.403 50.8081 134.408 47.5248 134.408C44.2996 134.408 42.7597 132.461 42.7597 129.207V124.616ZM57.3632 122.67V125.459H61.1695V137.081H64.3656V125.459H68.2882V122.67H64.3656V120.374C64.3656 119.793 64.6271 119.531 65.1502 119.531H67.5327V116.742H63.8426C62.2736 116.742 61.1695 117.875 61.1695 119.473V122.67H57.3632Z" fill="#72D7D1"/>
<path d="M25.8071 96.5766L21.3907 103.681V104.727H26.6498V106.746H27.8411V104.727H29.5844V103.637H27.8411V96.5766H25.8071ZM26.4754 97.5645H26.6498V103.637H22.7127L26.4754 97.5645Z" fill="#D0D0D0"/>
</svg>
