<svg xmlns="http://www.w3.org/2000/svg" fill="none" viewBox="0 0 200 200">
  <path fill="#fff" d="M0 0h100c55.228 0 100 44.772 100 100s-44.772 100-100 100H0V0z"/>
  <path fill="url(#paint0_linear)" d="M0 100L100 0c25.068 0 47.983 9.224 65.533 24.464-.002.024-25.18 25.203-75.533 75.536 50.355 50.333 75.532 75.513 75.53 75.539C147.979 190.777 125.067 200 100 200L0 100z"/>
  <path fill="url(#paint1_linear)" d="M165.535 24.466C186.649 42.8 200 69.84 200 100c0 30.161-13.352 57.203-34.469 75.538.003-.025-25.174-25.205-75.531-75.538l75.535-75.534z"/>
  <defs>
    <linearGradient id="paint0_linear" x2="200.449" y1="100" y2="100" gradientUnits="userSpaceOnUse">
      <stop stop-color="#4899F7"/>
      <stop offset="1" stop-color="#2457F5"/>
    </linearGradient>
    <linearGradient id="paint1_linear" x1="90" x2="229.377" y1="24.466" y2="97.034" gradientUnits="userSpaceOnUse">
      <stop stop-color="#9DE1E5"/>
      <stop offset="1" stop-color="#B8DFB2"/>
    </linearGradient>
  </defs>
</svg>
